<svg version="1.1" xmlns="http://www.w3.org/2000/svg" xmlns:xlink="http://www.w3.org/1999/xlink" width="800" height="800"><defs/><g transform="scale(2,2)"><g id="background-227b3b65"><rect fill="white" stroke="none" x="0" y="0" width="400" height="400" class="dcg-svg-background"/></g><g id="graphpaper-227b3b65"><g id="axis-227b3b65"><g id="yaxis-227b3b65"><title>Y axis</title><g><path fill="none" stroke="rgb(0,0,0)" class="dcg-svg-axis-line" paint-order="fill stroke markers" d=" M 86 0 L 86 400" stroke-opacity="0.9" stroke-miterlimit="10" stroke-width="1.5" stroke-dasharray=""/></g></g><g id="xaxis-227b3b65"><title>X axis</title><g><path fill="none" stroke="rgb(0,0,0)" class="dcg-svg-axis-line" paint-order="fill stroke markers" d=" M 0 268 L 400 268" stroke-opacity="0.9" stroke-miterlimit="10" stroke-width="1.5" stroke-dasharray=""/></g></g><g><g class="dcg-svg-axis-value"><text fill="none" stroke="#ffffff" font-family="Arial" font-size="14px" font-style="normal" font-weight="normal" text-decoration="normal" x="76.96397200015005" y="283.83259327295536" text-anchor="middle" stroke-miterlimit="2" stroke-width="3" stroke-dasharray="">0</text><text fill="#000000" stroke="none" font-family="Arial" font-size="14px" font-style="normal" font-weight="normal" text-decoration="normal" x="76.96397200015005" y="283.83259327295536" text-anchor="middle">0</text></g><g><path fill="none" stroke="rgb(0,0,0)" class="dcg-svg-tickmark" paint-order="fill stroke markers" d=" M 286 265 L 286 271 M 83 68 L 89 68" stroke-opacity="0.9" stroke-miterlimit="2" stroke-width="1.5" stroke-dasharray=""/></g><g class="dcg-svg-axis-value"><text fill="none" stroke="#ffffff" font-family="Arial" font-size="14px" font-style="normal" font-weight="normal" text-decoration="normal" x="285.8570384064001" y="283.83259327295536" text-anchor="middle" stroke-miterlimit="2" stroke-width="3" stroke-dasharray="">5</text><text fill="#000000" stroke="none" font-family="Arial" font-size="14px" font-style="normal" font-weight="normal" text-decoration="normal" x="285.8570384064001" y="283.83259327295536" text-anchor="middle">5</text></g><g class="dcg-svg-axis-value"><text fill="none" stroke="#ffffff" font-family="Arial" font-size="14px" font-style="normal" font-weight="normal" text-decoration="normal" x="76.96397200015005" y="71.8325932729554" text-anchor="middle" stroke-miterlimit="2" stroke-width="3" stroke-dasharray="">5</text><text fill="#000000" stroke="none" font-family="Arial" font-size="14px" font-style="normal" font-weight="normal" text-decoration="normal" x="76.96397200015005" y="71.8325932729554" text-anchor="middle">5</text></g></g></g></g><g id="expressions-227b3b65"><g id="sketch-227b3b65"><title>表达式1</title><path fill="#c74440" stroke="none" paint-order="stroke fill markers" d="" fill-opacity="0.4"/><g><path fill="none" stroke="#c74440" class="dcg-svg-curve" paint-order="fill stroke markers" d=" M 0 383.11016516237595 L 0 383.11016516237595 L 6.15234375 363.0804882258951 L 12.207031250000014 344.1078402645732 L 18.1640625 326.15674459384 L 24.023437500000007 309.192296733715 L 29.882812500000007 292.9144943814025 L 35.64453125000001 277.5775634725107 L 41.30859375000001 263.14774393623884 L 46.875000000000014 249.59184790637593 L 52.44140625000001 236.6556494473138 L 57.91015625000001 224.54988694583258 L 63.28125000000001 213.24251694490093 L 68.65234375 202.51211990539505 L 73.92578125 192.53815369651693 L 79.19921875 183.12037034896693 L 84.375 174.4178191015759 L 89.55078125 166.25104208514193 L 94.62890625 158.75906137785128 L 99.70703125 151.78282774087316 L 104.78515625 145.32234117420754 L 109.66796875 139.59670876147317 L 114.35546875 134.54871004368565 L 118.9453125 130.03169354812744 L 123.33984375 126.10171168745751 L 127.63671875 122.6325216193294 L 131.8359375 119.59894634178994 L 135.83984375 117.03491302335752 L 139.84375 114.79150501010088 L 143.75 112.91180474397586 L 147.55859375 111.37292404138876 L 151.26953125 110.15254692333562 L 154.98046875 109.20759094786061 L 158.59375 108.55214685770085 L 162.20703125 108.15781879537312 L 165.85703840640005 108.0245932729554 L 169.43359375 108.15251075421372 L 173.046875 108.54153077538209 L 176.66015625 109.19166682438248 L 180.2734375 110.10291890121488 L 183.984375 111.31059659273208 L 187.6953125 112.79369542682738 L 191.50390625 114.60221157482621 L 195.41015625 116.75846101573248 L 199.31640625 119.21988623788872 L 203.3203125 122.05956233107736 L 207.421875 125.30094968348206 L 211.71875 129.0575591759008 L 216.11328125 133.2814927205043 L 220.60546875000003 137.99849952383556 L 225.29296875 143.350891431048 L 230.17578125 149.3936000827668 L 235.15625 156.04840054790077 L 240.234375 163.34447526053202 L 245.3125 171.15629704347577 L 250.48828125 179.64906592547928 L 255.6640625 188.6776090384398 L 260.83984375 198.24192638235732 L 266.11328125 208.53773556410425 L 271.38671875 219.38972760717925 L 276.7578125 231.0144102185523 L 282.2265625 243.44325465066478 L 287.6953125 256.4702436140273 L 293.26171875 270.3441190075042 L 298.92578125 285.09749649271674 L 304.58984375 300.49250605800745 L 310.3515625 316.8112682033148 L 316.2109375 334.0875429994398 L 322.16796875 352.35566272177294 L 328.22265625 371.65053185029484 L 334.27734375 391.6785857932698 L 338.3069933471496 405.5" stroke-linecap="round" stroke-linejoin="round" stroke-miterlimit="10" stroke-width="2.5" stroke-dasharray=""/></g></g><g id="sketch-227b3b65"><title>A</title></g><g id="sketch-227b3b65"><title>B</title></g><g id="sketch-227b3b65"><title>表达式4</title><path fill="#2d70b3" stroke="none" paint-order="stroke fill markers" d="" fill-opacity="0.4"/><g><path fill="none" stroke="#2d70b3" class="dcg-svg-curve" paint-order="fill stroke markers" d=" M 125.85703840640005 108.0245932729554 L 245.85703840640005 109.22459327295539" stroke-linecap="round" stroke-linejoin="round" stroke-miterlimit="10" stroke-width="2.5" stroke-dasharray=""/></g></g><g id="sketch-227b3b65"><title>C</title></g><g id="sketch-227b3b65"><title>D</title></g></g><g id="labels-227b3b65"><g transform="rotate(0,0,0) translate(98,99)"><g class="dcg-svg-label"><text fill="none" stroke="#FFF" font-family="arial, sans-serif" font-size="15.4px" font-style="normal" font-weight="400" text-decoration="normal" x="0" y="13.82213396911621" text-anchor="start" stroke-linecap="round" stroke-linejoin="round" stroke-miterlimit="2" stroke-width="3" stroke-dasharray="">A</text><text fill="rgb(96, 66, 166)" stroke="none" font-family="arial, sans-serif" font-size="15.4px" font-style="normal" font-weight="400" text-decoration="normal" x="0" y="13.82213396911621" text-anchor="start">A</text></g></g><g transform="rotate(0,0,0) translate(264,100)"><g class="dcg-svg-label"><text fill="none" stroke="#FFF" font-family="arial, sans-serif" font-size="15.4px" font-style="normal" font-weight="400" text-decoration="normal" x="0" y="13.82213396911621" text-anchor="start" stroke-linecap="round" stroke-linejoin="round" stroke-miterlimit="2" stroke-width="3" stroke-dasharray="">B</text><text fill="rgb(96, 66, 166)" stroke="none" font-family="arial, sans-serif" font-size="15.4px" font-style="normal" font-weight="400" text-decoration="normal" x="0" y="13.82213396911621" text-anchor="start">B</text></g></g><g transform="rotate(0,0,0) translate(17,240)"><g class="dcg-svg-label"><text fill="none" stroke="#FFF" font-family="arial, sans-serif" font-size="15.4px" font-style="normal" font-weight="400" text-decoration="normal" x="0" y="13.82213396911621" text-anchor="start" stroke-linecap="round" stroke-linejoin="round" stroke-miterlimit="2" stroke-width="3" stroke-dasharray="">C</text><text fill="rgb(96, 66, 166)" stroke="none" font-family="arial, sans-serif" font-size="15.4px" font-style="normal" font-weight="400" text-decoration="normal" x="0" y="13.82213396911621" text-anchor="start">C</text></g></g><g transform="rotate(0,0,0) translate(302,239)"><g class="dcg-svg-label"><text fill="none" stroke="#FFF" font-family="arial, sans-serif" font-size="15.4px" font-style="normal" font-weight="400" text-decoration="normal" x="0" y="13.82213396911621" text-anchor="start" stroke-linecap="round" stroke-linejoin="round" stroke-miterlimit="2" stroke-width="3" stroke-dasharray="">D</text><text fill="rgb(96, 66, 166)" stroke="none" font-family="arial, sans-serif" font-size="15.4px" font-style="normal" font-weight="400" text-decoration="normal" x="0" y="13.82213396911621" text-anchor="start">D</text></g></g></g><path fill="none" stroke="#6042a6" class="dcg-svg-point" paint-order="fill stroke markers" d=" M 125.75703840640006 107.9245932729554 L 125.75703840640006 108.1245932729554 L 125.95703840640005 108.1245932729554 L 125.95703840640005 107.9245932729554" stroke-linecap="round" stroke-linejoin="round" stroke-miterlimit="10" stroke-width="8" stroke-dasharray=""/><path fill="none" stroke="#6042a6" class="dcg-svg-point" paint-order="fill stroke markers" d=" M 245.75703840640006 109.1245932729554 L 245.75703840640006 109.32459327295538 L 245.95703840640005 109.32459327295538 L 245.95703840640005 109.1245932729554" stroke-linecap="round" stroke-linejoin="round" stroke-miterlimit="10" stroke-width="8" stroke-dasharray=""/><path fill="none" stroke="#6042a6" class="dcg-svg-point" paint-order="fill stroke markers" d=" M 38.95703840640005 268.72459327295536 L 38.95703840640005 268.9245932729554 L 39.157038406400055 268.9245932729554 L 39.157038406400055 268.72459327295536" stroke-linecap="round" stroke-linejoin="round" stroke-miterlimit="10" stroke-width="8" stroke-dasharray=""/><path fill="none" stroke="#6042a6" class="dcg-svg-point" paint-order="fill stroke markers" d=" M 291.3570384064 267.92459327295535 L 291.3570384064 268.1245932729554 L 291.55703840640007 268.1245932729554 L 291.55703840640007 267.92459327295535" stroke-linecap="round" stroke-linejoin="round" stroke-miterlimit="10" stroke-width="8" stroke-dasharray=""/><g id="labels-227b3b65"/></g></svg>